<?xml version="1.0" standalone="no"?>
<!DOCTYPE svg PUBLIC "-//W3C//DTD SVG 20010904//EN"
 "http://www.w3.org/TR/2001/REC-SVG-20010904/DTD/svg10.dtd">
<svg version="1.0" xmlns="http://www.w3.org/2000/svg"
 width="500.000000pt" height="500.000000pt" viewBox="0 0 500.000000 500.000000"
 preserveAspectRatio="xMidYMid meet">

<g transform="translate(0.000000,500.000000) scale(0.100000,-0.100000)"
fill="#000000" stroke="none">
<path d="M3365 3274 c-16 -8 -34 -19 -38 -23 -5 -5 -25 0 -45 11 -93 48 -192
-25 -192 -140 0 -95 41 -147 162 -207 47 -24 55 -31 48 -46 -8 -13 -5 -18 15
-21 35 -7 52 6 35 26 -7 9 -11 18 -9 19 78 53 172 144 163 158 -2 4 2 14 10
22 8 7 17 34 21 58 17 115 -75 192 -170 143z m-194 -61 c13 -16 12 -17 -3 -4
-17 13 -22 21 -14 21 2 0 10 -8 17 -17z m325 -10 c4 -16 12 -31 17 -34 6 -4 6
-15 2 -25 -8 -18 -8 -18 -13 1 -2 11 -8 22 -12 25 -12 8 -21 60 -10 60 5 0 13
-12 16 -27z m-373 -52 c3 8 6 -4 6 -26 1 -47 35 -111 71 -134 23 -15 24 -15
12 1 -19 24 0 27 24 4 l22 -21 -30 -1 c-49 -2 -108 70 -108 132 0 13 -4 24
-10 24 -5 0 -10 8 -10 18 0 13 2 14 9 3 7 -11 9 -11 14 0z"/>
<path d="M3480 2898 c-64 -32 -98 -129 -71 -201 5 -13 30 -49 55 -80 39 -49
43 -57 30 -68 -14 -12 -14 -14 3 -20 31 -13 43 -10 43 10 0 15 10 21 42 26 23
4 49 11 58 16 8 5 32 15 53 24 26 10 36 19 31 27 -4 7 -4 10 1 6 11 -10 45 10
45 26 0 8 6 19 14 25 41 34 21 132 -30 151 -34 13 -91 13 -100 -1 -4 -7 -12 1
-21 19 -26 55 -89 71 -153 40z m-38 -60 c-7 -7 -12 -8 -12 -2 0 6 3 14 7 17 3
4 9 5 12 2 2 -3 -1 -11 -7 -17z m-2 -51 c0 -44 29 -120 57 -149 24 -26 25 -30
8 -27 -37 7 -111 199 -76 199 6 0 11 -11 11 -23z m330 -22 c0 -38 -18 -85 -33
-85 -5 0 -6 8 -1 18 4 9 9 36 12 60 5 50 22 56 22 7z m-270 -84 c0 -5 7 -17
16 -26 9 -9 13 -19 9 -23 -4 -4 -15 4 -26 17 -21 26 -24 41 -9 41 6 0 10 -4
10 -9z m80 -65 c0 -2 -8 -10 -17 -17 -16 -13 -17 -12 -4 4 13 16 21 21 21 13z"/>
<path d="M1294 2788 c-16 -13 -37 -32 -47 -43 -20 -23 -118 -214 -135 -262
-11 -32 -13 -33 -65 -33 -138 0 -251 -126 -204 -226 12 -24 27 -36 54 -44 87
-26 167 30 224 156 27 59 31 63 56 59 16 -2 45 -7 66 -10 30 -5 37 -10 33 -23
-15 -47 -35 -165 -30 -173 3 -5 16 -9 30 -9 29 0 35 13 61 125 18 79 18 80 53
86 19 4 43 10 52 14 15 6 13 -8 -12 -101 -17 -60 -26 -112 -21 -117 5 -5 21
-7 36 -5 27 3 30 8 55 104 16 65 36 115 53 138 56 73 129 108 144 70 3 -9 -7
-70 -22 -136 -32 -139 -29 -167 22 -181 26 -8 39 -5 69 12 32 19 39 20 46 8
12 -23 54 -29 93 -13 20 9 37 11 40 5 4 -5 19 -9 35 -9 24 0 31 5 36 28 37
165 46 186 104 245 41 41 64 57 83 57 15 0 27 -6 28 -12 3 -28 -3 -67 -22
-140 -27 -108 -25 -153 6 -174 18 -11 33 -14 57 -8 18 5 53 9 78 9 l44 0 25
105 c25 101 28 107 82 163 43 45 62 58 80 55 34 -4 35 -32 3 -159 -31 -125
-28 -157 20 -174 24 -8 36 -5 79 19 43 24 51 26 59 13 4 -9 23 -21 42 -27 46
-15 91 4 139 60 l37 44 0 -30 c0 -40 26 -74 56 -74 56 0 123 59 169 150 29 57
29 60 12 60 -7 0 -21 -16 -30 -35 -23 -49 -96 -125 -119 -125 -31 0 -32 27 -6
132 l24 100 -24 11 c-20 9 -27 8 -38 -8 -8 -10 -14 -25 -14 -32 0 -17 -45
-107 -73 -146 -29 -42 -76 -68 -99 -56 -40 21 -10 157 50 226 30 34 84 63 117
63 17 0 50 -10 75 -21 42 -19 45 -19 57 -3 16 22 9 32 -41 55 -83 37 -170 21
-246 -48 -60 -54 -99 -124 -107 -194 -5 -39 -12 -54 -33 -69 -16 -11 -33 -20
-39 -20 -18 0 -12 59 14 155 30 109 32 148 5 175 -38 38 -115 17 -170 -46 -16
-19 -31 -34 -34 -34 -5 0 61 222 85 283 16 40 17 49 5 53 -39 15 -58 -1 -82
-66 -20 -53 -105 -345 -132 -454 -8 -32 -54 -72 -71 -62 -17 11 -13 53 14 145
31 104 32 154 5 181 -39 39 -113 17 -176 -53 -36 -40 -37 -40 -30 -11 4 16 9
37 12 46 6 19 -27 41 -49 32 -9 -3 -27 -53 -46 -127 -48 -181 -49 -186 -83
-203 -60 -31 -59 6 11 248 11 36 17 69 13 72 -3 3 -18 6 -33 6 -31 0 -28 6
-84 -205 -18 -68 -34 -105 -48 -117 -57 -46 -64 -12 -25 135 29 112 30 125 17
152 -16 34 -54 51 -93 41 -15 -4 -50 -28 -78 -54 l-50 -47 7 47 c6 41 5 47
-14 53 -30 9 -48 -9 -56 -56 -8 -45 -33 -67 -87 -75 l-35 -6 28 133 c34 160
36 210 11 232 -26 24 -74 21 -108 -5z m65 -60 c0 -18 -15 -91 -33 -163 l-32
-130 -59 3 c-32 1 -61 4 -63 6 -5 5 44 127 79 197 54 108 110 152 108 87z
m-302 -378 c-36 -82 -72 -120 -112 -120 -29 0 -36 4 -41 27 -16 60 64 143 137
143 l38 0 -22 -50z"/>
<path d="M1911 2696 c-16 -19 -11 -46 12 -60 25 -16 52 4 52 40 0 24 -5 30
-26 32 -14 2 -31 -4 -38 -12z"/>
<path d="M3331 2404 c0 -11 3 -14 6 -6 3 7 2 16 -1 19 -3 4 -6 -2 -5 -13z"/>
<path d="M3587 2233 c-3 -5 -8 -30 -12 -58 -8 -58 -42 -122 -84 -158 -82 -68
-191 -94 -441 -103 -199 -7 -364 2 -820 48 -282 29 -349 32 -645 33 -359 0
-425 -7 -578 -61 -80 -29 -167 -76 -151 -81 6 -2 44 10 85 26 137 55 248 72
509 78 256 6 385 -1 855 -48 540 -53 927 -58 1075 -13 148 44 232 124 260 248
12 55 0 96 -29 96 -11 0 -22 -3 -24 -7z"/>
<path d="M3402 2170 c0 -14 2 -19 5 -12 2 6 2 18 0 25 -3 6 -5 1 -5 -13z"/>
<path d="M3692 2133 c-5 -10 -12 -34 -16 -54 -13 -70 -94 -164 -166 -192 -10
-3 -11 -6 -2 -6 24 -2 107 47 145 86 55 54 93 135 80 169 -7 19 -30 18 -41 -3z"/>
<path d="M3412 2105 c0 -16 2 -22 5 -12 2 9 2 23 0 30 -3 6 -5 -1 -5 -18z"/>
<path d="M1250 2073 c-92 -14 -308 -79 -297 -89 1 -2 30 5 62 15 83 26 229 49
362 57 62 4 110 10 107 15 -5 9 -183 10 -234 2z"/>
</g>
</svg>
